<svg width="40" height="40" viewBox="0 0 40 40" fill="none" xmlns="http://www.w3.org/2000/svg">
<path d="M12.0883 23.5311L6.0498 26.5503C6.0498 22.7812 8.1793 19.3355 11.5503 17.6496L17.4807 14.6847L21.593 7.93816L21.5941 7.95446C23.0321 5.587 25.6272 4 28.5999 4C33.1288 4 36.7999 7.67105 36.7999 12.2C36.7999 14.4645 34.9644 16.3 32.6999 16.3V13.3057C30.2515 14.7245 28.5999 17.3665 28.5999 20.4C28.5999 25.5411 25.4445 29.9435 20.9658 31.782L22.4501 34.7503H24.5001C25.6321 34.7503 26.5501 35.6683 26.5501 36.8003H14.2501C14.2501 35.6683 15.1681 34.7503 16.3001 34.7503L15.2751 32.7003H12.2001C10.9437 35.2133 8.3755 36.8003 5.5662 36.8003H4L12.0883 23.5311ZM30.6496 12.2048C31.7721 11.3606 33.0734 10.7408 34.4851 10.4136C33.9168 8.54518 32.4814 7.05058 30.6496 6.40139V12.2048ZM27.5746 10.15C28.1409 10.15 28.5996 9.69123 28.5996 9.12496C28.5996 8.55869 28.1409 8.09996 27.5746 8.09996C27.0083 8.09996 26.5496 8.55869 26.5496 9.12496C26.5496 9.69123 27.0083 10.15 27.5746 10.15ZM20.3996 34.75L19.2007 32.3528C18.585 32.5015 17.9506 32.6037 17.3026 32.6563L18.3496 34.7501L20.3996 34.75Z" fill="black"/>
</svg>
