<svg id="Layer_1" data-name="Layer 1" xmlns="http://www.w3.org/2000/svg" width="259.60999" height="75" viewBox="0 0 259.60999 75">
    <defs>
        <linearGradient id="linear-gradient" x1="0.34103" y1="1058.19199" x2="65.11102" y2="1024.54198" gradientTransform="translate(0 -1004)" gradientUnits="userSpaceOnUse">
            <stop offset="0.04" stop-color="#fc801d"/>
            <stop offset="0.38" stop-color="#fe2857"/>
            <stop offset="0.99" stop-color="#af1df5"/>
        </linearGradient>
    </defs>
    <g>
        <path fill="#fff" d="M94.29,41h-10V34.26h27.18V41h-10V67.5H94.25Z"/>
        <path fill="#fff" d="M108.05,54.92v-.1a13.27,13.27,0,0,1,13.28484-13.25515h0q.1776.00019.35516.00515a13.13,13.13,0,0,1,13.553,12.6929q.00765.23347.007.4671v.09A13.27,13.27,0,0,1,121.9649,68.07488h0q-.17247-.00018-.34491-.00488C113.84,68.07,108.05,62.23,108.05,54.92Zm20.15,0v-.1a6.69843,6.69843,0,0,0-6.38939-6.99381q-.10524-.00475-.2106-.00619c-3.93,0-6.52,3.18-6.52,6.94v.09a6.73,6.73,0,0,0,6.45356,6.99551q.0782.00317.15644.00449c4.1,0,6.53-3.18,6.53-6.93Z"/>
        <path fill="#fff" d="M137.13,54.92v-.1a13.27,13.27,0,0,1,13.28483-13.25515h0q.17765.00019.35517.00515a13.13,13.13,0,0,1,13.53364,12.71355h0q.007.22315.00635.44645v.09a13.27,13.27,0,0,1-13.28484,13.25515h0q-.1776-.0002-.35516-.00515a13.13,13.13,0,0,1-13.53361-12.71358h0Q137.12957,55.13828,137.13,54.92Zm20.15,0v-.1a6.73,6.73,0,0,0-6.45357-6.99552h0q-.07818-.00315-.15643-.00448c-4.08,0-6.51,3.18-6.51,6.94v.09a6.73,6.73,0,0,0,6.45356,6.99551q.07819.00317.15644.00449c4.07,0,6.51-3.18,6.51-6.93Z"/>
        <path fill="#fff" d="M167.73,32.84h7.12V67.5h-7.12Z"/>
        <path fill="#fff" d="M187.05,64.17V67.5h-7.13V32.84h7.13V45.7a9.19,9.19,0,0,1,7.82-4.13c5.86,0,11.44,4.66,11.44,13.16v.09c0,8.5-5.48,13.15-11.44,13.15A9.57,9.57,0,0,1,187.05,64.17Zm12.14-9.35v-.09c0-4.23-2.82-7-6.14-7s-6.1,2.8-6.1,7v.09c0,4.23,2.77,7,6.1,7s6.11-2.73,6.11-7Z"/>
        <path fill="#fff" d="M208.72,54.92v-.1a13.27,13.27,0,0,1,13.28484-13.25515h0q.17762.00019.35516.00515a13.13,13.13,0,0,1,13.53365,12.71355h0q.00693.22315.00633.44645v.09a13.27,13.27,0,0,1-13.28484,13.25515h0q-.1776-.0002-.35516-.00515a13.13,13.13,0,0,1-13.53361-12.71358h0Q208.71955,55.13828,208.72,54.92Zm20.15,0v-.1a6.73,6.73,0,0,0-6.45357-6.99552h0q-.07821-.00315-.15643-.00448c-4.07,0-6.51,3.18-6.51,6.94v.09a6.73,6.73,0,0,0,6.45357,6.99551q.07818.00317.15643.00449c4.07,0,6.51-3.18,6.51-6.93Z"/>
        <path fill="#fff" d="M247.05,49.5l4.73-7.45h7.45l-8.48,12.44,8.86,13h-7.64l-5.06-7.93-5.07,7.93h-7.49l8.81-12.92-8.48-12.53h7.64Z"/>
        <path d="M32.47,75,64.94,56.22V18.7L32.47,37.48Z"/>
        <path d="M52.94,56.28,38.79,64.42V59.23l14.15-8.14Z" fill="#fff"/>
        <path d="M32.47,0,0,18.7V56.22L32.47,75V37.48L64.94,18.7Z" fill="url(#linear-gradient)"/>
        <path fill="#fff" d="M82.98,23.34,84.52,22c1.16,1.75,2.35,2.7,4.32,2.7,2.13,0,3.7-1.54,3.7-4.54V7.52H94.7V20.16a6.81,6.81,0,0,1-1.73,5,5.77,5.77,0,0,1-4.16,1.57A6.49,6.49,0,0,1,82.98,23.34Z"/>
        <path fill="#fff" d="M98.59,19.48c0-4,2.84-7.26,6.7-7.26,4.13,0,6.5,3.29,6.5,7.36a4.93655,4.93655,0,0,1,0,.68H100.7a4.87,4.87,0,0,0,4.91,4.72,5.76,5.76,0,0,0,4.4-2l1.3,1.16a7.21,7.21,0,0,1-5.75,2.62,6.94,6.94,0,0,1-6.97824-6.90155v0Q98.58072,19.66914,98.59,19.48Zm11.1-.81c-.22-2.54-1.68-4.75-4.46-4.75-2.43,0-4.26,2-4.53,4.75Z"/>
        <path fill="#fff" d="M115.69,22.72V14.3h-1.94V12.46h1.94V8.25h2.08v4.21h4.43V14.3h-4.43v8.15a2.07,2.07,0,0,0,2.35,2.32,4.40013,4.40013,0,0,0,2-.48v1.78a5.36,5.36,0,0,1-2.52.59C117.39,26.66,115.69,25.55,115.69,22.72Z"/>
        <path fill="#fff" d="M125.65,7.52h8.05a6.91,6.91,0,0,1,4.94,1.68,4.19,4.19,0,0,1,1.21,3v.05a4.57,4.57,0,0,1-3,4.38c2.24.67,4.05,2,4.05,4.56,0,3.24-2.73,5.16-6.86,5.16h-8.4Zm12,5c0-1.87-1.48-3.08-4.18-3.08h-5.75v6.5h5.59c2.56,0,4.34-1.16,4.34-3.37Zm-4,5.31h-6V24.5h6.34c2.86,0,4.65-1.27,4.65-3.37v-.06c.11-2.07-1.59-3.24-4.91-3.24Z"/>
        <path fill="#fff" d="M144.89,12.46h2.08v3.65a6,6,0,0,1,5.7-3.89v2.24h-.17c-3,0-5.53,2.19-5.53,6.4v5.56h-2.08Z"/>
        <path fill="#fff" d="M154.37,22.37v-.06c0-2.94,2.43-4.5,6-4.5a14.85008,14.85008,0,0,1,4.29.59v-.48c0-2.52-1.54-3.81-4.15-3.81a9.75,9.75,0,0,0-4.24,1l-.62-1.7a11.55009,11.55009,0,0,1,5.07-1.16,6.16,6.16,0,0,1,4.51,1.54,5.55007,5.55007,0,0,1,1.43,4.08V26.4h-2V24.31a6.1,6.1,0,0,1-5,2.4C156.98,26.71,154.37,25.23,154.37,22.37Zm10.28-1.08V19.94a14.46969,14.46969,0,0,0-4.1-.59c-2.62,0-4.08,1.13-4.08,2.88v.06c0,1.75,1.62,2.78,3.51,2.78,2.56,0,4.67-1.57,4.67-3.78Z"/>
        <path fill="#fff" d="M170.86,7.12h2.37V9.41h-2.37Zm.13,5.34h2.06v14h-2.08Z"/>
        <path fill="#fff" d="M177.6,12.46h2.08v2.43a5.29,5.29,0,0,1,4.78-2.72c3.37,0,5.34,2.26,5.34,5.58v8.67h-2.08V18.27c0-2.6-1.4-4.21-3.86-4.21a4.1,4.1,0,0,0-4.188,4.01007v0q-.00392.18.008.35992v8H177.6Z"/>
        <path fill="#fff" d="M192.85,24.64l1.06-1.49a8.1,8.1,0,0,0,4.83,1.78c1.67,0,2.89-.86,2.89-2.21,0-1.41-1.65-2-3.49-2.46-2.18-.62-4.61-1.38-4.61-3.94v-.06c0-2.4,2-4,4.75-4a9.49,9.49,0,0,1,5,1.54l-.94,1.56A8.00012,8.00012,0,0,0,198.23,14c-1.65,0-2.7.87-2.7,2v.05c0,1.33,1.72,1.84,3.59,2.41,2.16.64,4.48,1.48,4.48,4,0,2.65-2.19,4.19-5,4.19a9.6,9.6,0,0,1-5.75-2.01Z"/>
    </g>
</svg>
